# AST/ASF file generated using VICON BodyLanguage
# -----------------------------------------------
:version 1.10
:name VICON
:units
  mass 1.0
  length 0.45
  angle deg
:documentation
   .ast/.asf automatically generated from VICON data using
   VICON BodyBuilder and BodyLanguage model FoxedUp or BRILLIANT.MOD
:root
   order TX TY TZ RX RY RZ
   axis XYZ
   position 0 0 0  
   orientation 0 0 0 
:bonedata
  begin
     id 1 
     name lhipjoint
     direction 0.576517 -0.752066 0.319413 
     length 2.45433 
     axis 0 0 0  XYZ
  end
  begin
     id 2 
     name lfemur
     direction 0.34202 -0.939693 0  
     length 7.54459  
     axis 0 0 20  XYZ
    dof rx ry rz
    limits (-160.0 20.0)
           (-70.0 70.0)
           (-60.0 70.0)
  end
  begin
     id 3 
     name ltibia
     direction 0.34202 -0.939693 0   
     length 7.73986   
     axis 0 0 20   XYZ
    dof rx
    limits (-10.0 170.0)
  end
  begin
     id 4 
     name lfoot
     direction 0.090693 -0.249177 0.964202   
     length 2.28437   
     axis -90 7.62852e-016 20   XYZ
    dof rx rz
    limits (-45.0 90.0)
           (-70.0 20.0)
  end
  begin
     id 5 
     name ltoes
     direction 1.5356e-011 -4.21928e-011 1   
     length 1.14243   
     axis -90 7.62852e-016 20   XYZ
    dof rx
    limits (-90.0 20.0)
  end
  begin
     id 6 
     name rhipjoint
     direction -0.573937 -0.753736 0.320122   
     length 2.44889  
     axis 0 0 0  XYZ 
  end
  begin
     id 7 
     name rfemur
     direction -0.34202 -0.939693 0   
     length 7.50166   
     axis 0 0 -20   XYZ
    dof rx ry rz
    limits (-160.0 20.0)
           (-70.0 70.0)
           (-70.0 60.0)
  end
  begin
     id 8 
     name rtibia
     direction -0.34202 -0.939693 0   
     length 7.54266   
     axis 0 0 -20   XYZ
    dof rx
    limits (-10.0 170.0)
 end
 begin
     id 9 
     name rfoot
     direction -0.114017 -0.31326 0.942798   
     length 2.34212  
     axis -90 -7.62852e-016 -20   XYZ
    dof rx rz
    limits (-45.0 90.0)
           (-20.0 70.0)
  end
  begin
     id 10 
     name rtoes
     direction -1.53557e-011 -4.21867e-011 1   
     length 1.16246   
     axis -90 -7.62852e-016 -20   XYZ
    dof rx
    limits (-90.0 20.0)
  end
  begin
     id 11 
     name lowerback
     direction -0.0228371 0.999155 -0.034167   
     length 2.0537   
     axis 0 0 0   XYZ
    dof rx ry rz
    limits (-20.0 45.0)
           (-30.0 30.0)
           (-30.0 30.0)
  end
  begin
     id 12 
     name upperback
     direction 0.0198981 0.999794 0.00389455   
     length 2.05302   
     axis 0 0 0   XYZ
    dof rx ry rz
    limits (-20.0 45.0)
           (-30.0 30.0)
           (-30.0 30.0)
  end
  begin
     id 13 
     name thorax
     direction 0.0304566 0.99935 0.0192987   
     length 2.05315   
     axis 0 0 0   XYZ
    dof rx ry rz
    limits (-20.0 45.0)
           (-30.0 30.0)
           (-30.0 30.0)
  end
  begin
     id 14 
     name lowerneck
     direction -0.0196762 0.99417 0.106017   
     length 1.82056   
     axis 0 0 0   XYZ
    dof rx ry rz
    limits (-20.0 45.0)
           (-30.0 30.0)
           (-30.0 30.0)
  end
  begin
     id 15 
     name upperneck
     direction 0.00517787 0.9802 -0.197944   
     length 1.83835   
     axis 0 0 0   XYZ
    dof rx ry rz
    limits (-20.0 45.0)
           (-30.0 30.0)
           (-30.0 30.0)
  end
  begin
     id 16
     name head
     direction 0.00211419 0.996945 -0.078081  
     length 1.85629  
     axis 0 0 0   XYZ
    dof rx ry rz
    limits (-20.0 45.0)
           (-30.0 30.0)
           (-30.0 30.0)
  end
  begin
     id 17 
     name lclavicle
     direction 0.930001 0.365811 -0.0357824  
     length 3.81961  
     axis 0 0 0   XYZ
    dof ry rz
    limits (-20.0 10.0)
           (0.0 20.0)
  end
  begin
     id 18 
     name lhumerus
     direction 1 -4.48968e-011 -3.06644e-027   
     length 5.14507   
     axis 180 -30 -90   XYZ
    dof rx ry rz
    limits (-60.0 90.0)
           (-90.0 90.0)
           (-90.0 90.0)
  end
  begin
     id 19
     name lradius
     direction 1 -4.48965e-011 9.06925e-028   
     length 3.50646   
     axis 180 -30 -90   XYZ
    dof rx
    limits (-10.0 170.0)
  end
  begin
     id 20
     name lwrist
     direction 1 -4.48957e-011 1.03922e-027   
     length 1.75323   
     axis -2.56395e-016 90 90   XYZ
    dof ry
    limits (-180.0 0.0)
 end
  begin
     id 21 
     name lhand
     direction 1 -4.48967e-011 2.08017e-027   
     length 0.629969   
     axis -1.32723e-015 90 90   XYZ
    dof rx rz
    limits (-90.0 90.0)
           (-45.0 45.0)
  end
  begin
     id 22 
     name lfingers
     direction 1 -4.49089e-011 4.20095e-027   
     length 0.507897   
     axis -2.6545e-015 90 90   XYZ
    dof rx
    limits (0.0 90.0)
  end
  begin
     id 23
     name lthumb
     direction 0.707107 -6.35001e-011 0.707107   
     length 0.729241   
     axis -90 45 5.05613e-014   XYZ
    dof rx rz
    limits (-45.0 45.0)
           (-45.0 45.0)
  end
  begin
     id 24 
     name rclavicle
     direction -0.881882 0.464123 -0.0829113   
     length 3.47515  
     axis 0 0 0   XYZ 
    dof ry rz
    limits (-10.0 20.0)
           (-20.0 0.0)
  end
  begin
     id 25 
     name rhumerus
     direction -1 -4.48961e-011 -1.55672e-027  
     length 5.232   
     axis 180 30 90   XYZ
    dof rx ry rz
    limits (-90.0 60.0)
           (-90.0 90.0)
           (-90.0 90.0)
  end
  begin
     id 26 
     name rradius
     direction -1 -4.48963e-011 6.18178e-029   
     length 3.65641   
     axis 180 30 90   XYZ
    dof rx
    limits (-10.0 170.0)
  end
  begin
     id 27 
     name rwrist
     direction -1 -4.48982e-011 1.04136e-027   
     length 1.8282   
     axis -2.56395e-016 -90 -90   XYZ
    dof ry
    limits (-180.0 0.0)
  end
  begin
     id 28
     name rhand
     direction -1 -4.48929e-011 2.07378e-027   
     length 0.656807   
     axis -1.32723e-015 -90 -90   XYZ
    dof rx rz
    limits (-90.0 90.0)
           (-45.0 45.0)
  end
  begin
     id 29
     name rfingers
     direction -1 -4.489e-011 4.13816e-027   
     length 0.529535   
     axis -2.6545e-015 -90 -90   XYZ
    dof rx
    limits (0.0 90.0)
  end
  begin
     id 30
     name rthumb
     direction -0.707107 -6.34843e-011 0.707107   
     length 0.760309   
     axis -90 -45 -5.05613e-014   XYZ
    dof rx rz
    limits (-45.0 45.0)
           (-45.0 45.0)
  end
:hierarchy
  begin
    root lhipjoint rhipjoint lowerback
    lhipjoint lfemur
    lfemur ltibia
    ltibia lfoot
    lfoot ltoes
    rhipjoint rfemur
    rfemur rtibia
    rtibia rfoot
    rfoot rtoes
    lowerback upperback
    upperback thorax
    thorax lowerneck lclavicle rclavicle
    lowerneck upperneck
    upperneck head
    lclavicle lhumerus
    lhumerus lradius
    lradius lwrist
    lwrist lhand lthumb
    lhand lfingers
    rclavicle rhumerus
    rhumerus rradius
    rradius rwrist
    rwrist rhand rthumb
    rhand rfingers
  end

#!OML:ASF H:\ManfredETheater\Project 1\Capture day 1\Session 1\subject.ASF
:FULLY-SPECIFIED
:DEGREES
32
root -8.94552 17.1276 39.4819 -172.548 15.1031 180.26
lowerback 4.77366 1.13752 0.363327
upperback -1.72888 1.78287 3.21949
thorax -4.56221 0.967748 2.97476
lowerneck -14.2579 2.86339 1.97555
upperneck 14.1576 4.33166 -4.25969
head 6.80609 1.88005 -1.25546
rclavicle -3.62782e-014 -3.10104e-014
rhumerus -32.9184 -7.37443 -79.2705
rradius 36.7342
rwrist 3.58824
rhand -17.3842 -11.3629
rfingers 7.12502
rthumb 8.86461 -41.1567
lclavicle -3.62782e-014 -3.10104e-014
lhumerus -31.4649 3.83238 88.7301
lradius 31.9492
lwrist -9.10645
lhand -6.97843 1.2902
lfingers 7.12502
lthumb 18.8916 30.3928
rfemur -12.4355 -4.12632 26.4886
rtibia 29.2901
rfoot -19.8388 -21.7973
rtoes -11.5107
lfemur -31.5548 -2.5958 -11.2714
ltibia 42.0149
lfoot -15.0414 -3.48722
ltoes 8.68511
33
root -8.94008 17.125 39.4767 -172.54 15.1279 180.312
lowerback 4.81574 1.14614 0.43132
upperback -1.72422 1.80136 3.22956
thorax -4.58046 0.97564 2.94454
lowerneck -14.2997 2.87327 1.98538
upperneck 14.1375 4.34464 -4.28444
head 6.80804 1.88386 -1.2633
rclavicle -4.12478e-014 -1.27222e-014
rhumerus -33.0031 -7.37878 -79.3517
rradius 36.6373
rwrist 3.65979
rhand -17.2923 -11.3275
rfingers 7.12502
rthumb 8.95328 -41.1175
lclavicle -4.12478e-014 -1.27222e-014
lhumerus -31.511 3.81897 88.7861
lradius 31.9937
lwrist -9.07283
lhand -6.9892 1.28908
lfingers 7.12502
lthumb 18.8812 30.3927
rfemur -12.3984 -4.12498 26.5559
rtibia 29.2725
rfoot -19.8296 -21.7868
rtoes -11.6161
lfemur -31.5897 -2.56376 -11.2082
ltibia 42.1363
lfoot -15.0638 -3.4814
ltoes 8.65859
34
root -8.93485 17.1224 39.4705 -172.529 15.1734 180.366
lowerback 4.84642 1.15876 0.501893
upperback -1.71486 1.82494 3.23904
thorax -4.58745 0.985895 2.91199
lowerneck -14.3349 2.88554 1.99688
upperneck 14.1099 4.36049 -4.31109
head 6.80667 1.88913 -1.27183
rclavicle 2.47487e-014 -2.38542e-014
rhumerus -33.083 -7.38253 -79.4308
rradius 36.5389
rwrist 3.76579
rhand -17.162 -11.3091
rfingers 7.12502
rthumb 9.07898 -41.0937
lclavicle 2.47487e-014 -2.38542e-014
lhumerus -31.5559 3.81189 88.8395
lradius 32.0339
lwrist -9.04115
lhand -7.0031 1.29007
lfingers 7.12502
lthumb 18.8678 30.395
rfemur -12.3574 -4.11547 26.6209
rtibia 29.2498
rfoot -19.814 -21.7728
rtoes -11.7394
lfemur -31.617 -2.5291 -11.1441
ltibia 42.2593
lfoot -15.0897 -3.45876
ltoes 8.62584
35
root -8.92981 17.1201 39.4629 -172.519 15.2445 180.422
lowerback 4.86366 1.17754 0.576744
upperback -1.69803 1.85624 3.24601
thorax -4.57913 0.999668 2.87401
lowerneck -14.3692 2.89998 2.01083
upperneck 14.0777 4.37832 -4.33752
head 6.80374 1.89551 -1.28051
rclavicle -2.57426e-014 -1.03368e-014
rhumerus -33.156 -7.38265 -79.513
rradius 36.4332
rwrist 3.86395
rhand -17.0371 -11.2622
rfingers 7.12502
rthumb 9.19959 -41.0415
lclavicle -2.57426e-014 -1.03368e-014
lhumerus -31.5965 3.8077 88.8889
lradius 32.0689
lwrist -9.0081
lhand -7.02215 1.29243
lfingers 7.12502
lthumb 18.8495 30.3991
rfemur -12.3083 -4.09186 26.6808
rtibia 29.2237
rfoot -19.8127 -21.7405
rtoes -11.8134
lfemur -31.6317 -2.4925 -11.0793
ltibia 42.3819
lfoot -15.1193 -3.41707
ltoes 8.59369
36
root -8.92475 17.118 39.4549 -172.502 15.3271 180.474
lowerback 4.87729 1.19857 0.643883
upperback -1.68319 1.88997 3.25284
thorax -4.57111 1.01487 2.84007
lowerneck -14.4014 2.91559 2.02705
upperneck 14.0457 4.39771 -4.36594
head 6.80068 1.90264 -1.29007
rclavicle -5.01931e-014 2.06736e-014
rhumerus -33.2277 -7.3721 -79.5974
rradius 36.3153
rwrist 3.93372
rhand -16.9373 -11.1722
rfingers 7.12502
rthumb 9.2958 -40.9472
lclavicle -5.01931e-014 2.06736e-014
lhumerus -31.6398 3.80751 88.9363
lradius 32.0978
lwrist -8.97513
lhand -7.02486 1.29652
lfingers 7.12502
lthumb 18.8469 30.4035
rfemur -12.2639 -4.06117 26.7361
rtibia 29.1981
rfoot -19.8178 -21.7016
rtoes -11.8693
lfemur -31.6472 -2.45019 -11.0173
ltibia 42.502
lfoot -15.1459 -3.37324
ltoes 8.55484
37
root -8.9197 17.1163 39.446 -172.48 15.4218 180.52
lowerback 4.88728 1.22203 0.699227
upperback -1.67204 1.92612 3.25969
thorax -4.56531 1.03164 2.81265
lowerneck -14.4294 2.93168 2.0446
upperneck 14.0156 4.41835 -4.39751
head 6.79767 1.91031 -1.30075
rclavicle -1.44119e-014 -1.03368e-014
rhumerus -33.3008 -7.34839 -79.6805
rradius 36.1866
rwrist 3.98471
rhand -16.8641 -11.0647
rfingers 7.12502
rthumb 9.3665 -40.8366
lclavicle -1.44119e-014 -1.03368e-014
lhumerus -31.6883 3.81243 88.9834
lradius 32.12
lwrist -8.94142
lhand -7.01622 1.30169
lfingers 7.12502
lthumb 18.8552 30.4078
rfemur -12.2261 -4.02402 26.7822
rtibia 29.1756
rfoot -19.8272 -21.6576
rtoes -11.9181
lfemur -31.6622 -2.40655 -10.9616
ltibia 42.6177
lfoot -15.1677 -3.32404
ltoes 8.51054
38
root -8.9145 17.1147 39.437 -172.451 15.5186 180.559
lowerback 4.90296 1.24471 0.737296
upperback -1.67065 1.96079 3.26931
thorax -4.57348 1.04833 2.79779
lowerneck -14.4516 2.94792 2.06032
upperneck 13.9925 4.44051 -4.42963
head 6.79595 1.91873 -1.31119
rclavicle 2.80286e-014 6.67916e-014
rhumerus -33.3802 -7.3165 -79.7555
rradius 36.0523
rwrist 4.0509
rhand -16.7897 -10.9696
rfingers 7.12502
rthumb 9.43827 -40.7383
lclavicle 2.80286e-014 6.67916e-014
lhumerus -31.7486 3.82457 89.0312
lradius 32.1351
lwrist -8.91467
lhand -7.00237 1.3083
lfingers 7.12502
lthumb 18.8685 30.4131
rfemur -12.1998 -3.97943 26.8225
rtibia 29.1599
rfoot -19.8451 -21.6151
rtoes -11.9435
lfemur -31.6835 -2.36164 -10.9108
ltibia 42.7279
lfoot -15.1814 -3.27973
ltoes 8.46218
39
root -8.90918 17.1134 39.4275 -172.419 15.6209 180.588
lowerback 4.92694 1.26762 0.754125
upperback -1.68079 1.99506 3.28073
thorax -4.59913 1.06556 2.79656
lowerneck -14.4611 2.96391 2.07543
upperneck 13.9751 4.46406 -4.46524
head 6.79402 1.92785 -1.32261
rclavicle -3.16068e-014 8.26944e-014
rhumerus -33.472 -7.27578 -79.8209
rradius 35.9137
rwrist 4.12731
rhand -16.7184 -10.8851
rfingers 7.12502
rthumb 9.50709 -40.6506
lclavicle -3.16068e-014 8.26944e-014
lhumerus -31.826 3.84476 89.0803
lradius 32.1414
lwrist -8.89725
lhand -6.97714 1.31616
lfingers 7.12502
lthumb 18.8928 30.4186
rfemur -12.1835 -3.92668 26.8511
rtibia 29.1527
rfoot -19.8683 -21.576
rtoes -11.9605
lfemur -31.7058 -2.31586 -10.8705
ltibia 42.8316
lfoot -15.1886 -3.23724
ltoes 8.40476
40
root -8.90384 17.1124 39.4176 -172.385 15.7261 180.603
lowerback 4.9576 1.29056 0.751491
upperback -1.69814 2.02833 3.29176
thorax -4.63669 1.08284 2.80576
lowerneck -14.468 2.97947 2.08988
upperneck 13.9649 4.48804 -4.50172
head 6.79402 1.93715 -1.33416
rclavicle -1.32192e-014 -3.4191e-014
rhumerus -33.5684 -7.23272 -79.8779
rradius 35.7694
rwrist 4.21734
rhand -16.6537 -10.8092
rfingers 7.12502
rthumb 9.56945 -40.5719
lclavicle -1.32192e-014 -3.4191e-014
lhumerus -31.9138 3.86622 89.1305
lradius 32.1418
lwrist -8.88464
lhand -6.94822 1.32431
lfingers 7.12502
lthumb 18.9206 30.4241
rfemur -12.1756 -3.86653 26.8663
rtibia 29.1555
rfoot -19.8953 -21.542
rtoes -11.9665
lfemur -31.7274 -2.27376 -10.843
ltibia 42.9281
lfoot -15.1895 -3.19292
ltoes 8.32415
41
root -8.8984 17.1116 39.4073 -172.351 15.8338 180.605
lowerback 4.99394 1.31631 0.73069
upperback -1.7177 2.06371 3.29847
thorax -4.68037 1.10148 2.82035
lowerneck -14.4879 2.99313 2.10796
upperneck 13.9645 4.5087 -4.53688
head 6.79936 1.94481 -1.34604
rclavicle -2.56432e-014 -4.77083e-015
rhumerus -33.6616 -7.20896 -79.9251
rradius 35.6238
rwrist 4.34686
rhand -16.5718 -10.7646
rfingers 7.12502
rthumb 9.6485 -40.5237
lclavicle -2.56432e-014 -4.77083e-015
lhumerus -31.9982 3.87605 89.1812
lradius 32.1339
lwrist -8.87557
lhand -6.91061 1.33159
lfingers 7.12502
lthumb 18.9568 30.4278
rfemur -12.1762 -3.79454 26.8678
rtibia 29.1686
rfoot -19.9282 -21.518
rtoes -11.95
lfemur -31.7482 -2.23024 -10.8295
ltibia 43.0165
lfoot -15.1848 -3.15232
ltoes 8.22783
